<svg width="242" height="170" viewBox="0 0 242 170" fill="none" xmlns="http://www.w3.org/2000/svg">
<g opacity="0.05">
<path d="M90.7289 77.7862H159.496L155.386 85L150.741 93.1409L134.469 121.687H167.813L172.058 114.244L184.085 93.1409L188.73 85L192.84 77.7862L209.297 48.9182L218.051 33.5608L234.903 4H201.559L184.708 33.5608L175.953 48.9182H107.186L115.94 33.5608L121 24.6885L132.794 4H99.4503L82.5965 33.5608L73.8419 48.9182L57.3875 77.7862L48.6303 93.1409L7.09766 166H40.4416L81.9743 93.1409L90.7289 77.7862Z" stroke="#1D1E1F" stroke-width="7.59375" stroke-miterlimit="10"/>
<path d="M184.034 4.00014H150.69L146.621 11.1367L133.836 33.561H167.18L184.034 4.00014Z" stroke="#1D1E1F" stroke-width="7.59375" stroke-miterlimit="10"/>
<path d="M234.906 165.998H58.3359L74.7928 137.13L99.8712 93.1392H133.215L116.943 121.685L108.137 137.13H176.013L178.271 133.169L178.292 133.133L182.468 125.806L182.471 125.801L182.473 125.798L197.212 99.9435L234.906 165.998Z" stroke="#1D1E1F" stroke-width="7.59375" stroke-miterlimit="10"/>
</g>
</svg>
