<svg width="242" height="170" viewBox="0 0 242 170" fill="none" xmlns="http://www.w3.org/2000/svg">
<g opacity="0.9">
<path d="M90.7017 77.7862H159.527L155.414 85L150.765 93.1409L134.478 121.687H167.851L172.1 114.244L184.137 93.1409L188.786 85L192.899 77.7862L209.37 48.9182L218.132 33.5608L234.997 4H201.625L184.76 33.5608L175.997 48.9182H107.172L115.934 33.5608L120.998 24.6885L132.802 4H99.4304L82.5625 33.5608L73.8004 48.9182L57.3323 77.7862L48.5677 93.1409L7 166H40.372L81.9397 93.1409L90.7017 77.7862Z" stroke="white" stroke-opacity="0.03" stroke-width="7.59375" stroke-miterlimit="10"/>
<path d="M184.084 4H150.712L146.64 11.1365L133.844 33.5608H167.216L184.084 4Z" stroke="white" stroke-opacity="0.03" stroke-width="7.59375" stroke-miterlimit="10"/>
<path d="M235 165.999H58.2812L74.752 137.131L99.8515 93.1396H133.224L116.937 121.686L108.124 137.131H176.057L178.318 133.17L178.338 133.134L182.518 125.806L182.52 125.801L182.523 125.799L197.274 99.944L235 165.999Z" stroke="white" stroke-opacity="0.03" stroke-width="7.59375" stroke-miterlimit="10"/>
</g>
</svg>
