<svg width="124" height="124" viewBox="0 0 124 124" fill="none" xmlns="http://www.w3.org/2000/svg">
<rect width="124" height="124" rx="20" fill="#FFDE59"/>
<path d="M51.7681 59.5758H75.0119L73.6228 62.0001L72.0528 64.736L66.5525 74.3291H77.8231L79.2581 71.8279L83.3233 64.736L84.8933 62.0001L86.2824 59.5758L91.845 49.8745L94.8042 44.7135L100.5 34.7793H89.2295L83.5336 44.7135L80.5745 49.8745H57.3306L60.2898 44.7135L62 41.7319L65.9865 34.7793H54.716L49.0192 44.7135L46.0601 49.8745L40.4984 59.5758L37.5384 64.736L23.5 89.2209H34.7705L48.8089 64.736L51.7681 59.5758Z" fill="#1D1E1F"/>
<path d="M83.3071 34.7793H72.0366L70.6613 37.1776L66.3398 44.7135H77.6104L83.3071 34.7793Z" fill="#1D1E1F"/>
<path d="M100.503 89.2203H40.8203L46.3829 79.5189L54.8596 64.7354H66.1301L60.6299 74.3285L57.6534 79.5189H80.5961L81.3594 78.1878L81.3663 78.1757L82.778 75.7133L82.7788 75.7116L82.7797 75.7107L87.7615 67.022L100.503 89.2203Z" fill="#1D1E1F"/>
</svg>
